<?xml version="1.0" encoding="UTF-8" standalone="no"?>
<svg
   xmlns:dc="http://purl.org/dc/elements/1.1/"
   xmlns:cc="http://creativecommons.org/ns#"
   xmlns:rdf="http://www.w3.org/1999/02/22-rdf-syntax-ns#"
   xmlns:svg="http://www.w3.org/2000/svg"
   xmlns="http://www.w3.org/2000/svg"
   viewBox="0 0 666.66669 666.66669"
   height="666.66669"
   width="666.66669"
   xml:space="preserve"
   id="svg2"
   version="1.1"><metadata
     id="metadata8"><rdf:RDF><cc:Work
         rdf:about=""><dc:format>image/svg+xml</dc:format><dc:type
           rdf:resource="http://purl.org/dc/dcmitype/StillImage" /></cc:Work></rdf:RDF></metadata><defs
     id="defs6"><clipPath
       id="clipPath20"
       clipPathUnits="userSpaceOnUse"><path
         id="path18"
         d="M 0,500 H 500 V 0 H 0 Z" /></clipPath></defs><g
     transform="matrix(1.3333333,0,0,-1.3333333,0,666.66667)"
     id="g10"><path
       id="path12"
       style="fill:#0a0718;fill-opacity:1;fill-rule:nonzero;stroke:none"
       d="M 0,0 H 500 V 500 H 0 Z" /><g
       id="g14"><g
         clip-path="url(#clipPath20)"
         id="g16"><g
           transform="translate(127.9131,202.1055)"
           id="g22"><path
             id="path24"
             style="fill:#f0972c;fill-opacity:1;fill-rule:nonzero;stroke:none"
             d="m 0,0 c -13.242,6.814 -20.151,17.233 -22.574,32.15 -11.767,72.445 32.051,141.276 102.958,158.003 49.786,11.744 93.545,-1.653 130.037,-38.155 1.597,-1.597 3.01,-3.38 4.897,-5.517 -6.5,1.324 -12.251,2.524 -18.014,3.655 -2.584,0.507 -4.631,1.88 -6.646,3.516 C 118.113,212.535 10.457,174.606 -9.493,83.026 -15.288,56.423 -12.439,30.507 -1.606,5.509 -0.894,3.865 0.669,2.408 0,0" /></g><g
           transform="translate(358.2656,297.937)"
           id="g26"><path
             id="path28"
             style="fill:#d1fb11;fill-opacity:1;fill-rule:nonzero;stroke:none"
             d="m 0,0 c 10.099,-7.979 17.551,-16.611 18.175,-30.877 2.888,-65.981 -36.287,-123.085 -99.243,-140.992 -45.511,-12.943 -87.093,-3.195 -124.582,26.3 5.214,0.937 23.118,-1.556 26.934,-3.608 77.084,-41.475 167.818,2.671 183.399,89.381 3.448,19.193 1.685,38.227 -3.771,56.915 C 0.63,-1.914 0.305,-0.96 0,0" /></g><g
           transform="translate(298.9873,191.8945)"
           id="g30"><path
             id="path32"
             style="fill:#f61998;fill-opacity:1;fill-rule:nonzero;stroke:none"
             d="m 0,0 c -16.037,-12.857 -34.416,-20.461 -54.051,-24.994 -40.382,-9.323 -80.405,-8.975 -119.703,5.58 -11.989,4.441 -22.989,10.688 -32.392,19.581 -17.452,16.507 -22.225,36.601 -16.226,59.521 2.849,10.881 7.759,20.901 14.283,30.141 -3.867,-15.113 -5.366,-30.335 -1.744,-45.552 4.248,-17.851 14.966,-31.256 29.902,-41.41 17.356,-11.799 36.887,-17.923 57.291,-20.617 37.846,-4.997 75.018,-1.987 110.812,12.457 C -7.826,-3.678 -3.94,-1.771 0,0" /></g><g
           transform="translate(387.7979,228.2432)"
           id="g34"><path
             id="path36"
             style="fill:#16b1fc;fill-opacity:1;fill-rule:nonzero;stroke:none"
             d="m 0,0 c 2.392,11.393 4.618,22.628 2.996,34.244 -3.103,22.241 -15.268,38.392 -33.469,50.333 -17.869,11.724 -37.829,17.517 -58.78,20.016 -42.042,5.014 -82.37,-2.04 -121.367,-18.049 -0.732,-0.3 -1.465,-0.598 -2.342,-0.573 13.916,11.288 29.949,18.218 47.017,22.783 43.435,11.618 86.706,12.087 129.614,-2.703 11.061,-3.813 21.28,-9.247 30.376,-16.76 C 13.696,73.058 19.415,52.359 13.112,28.002 10.503,17.916 6.147,8.515 0,0" /></g></g></g><text
       id="text40"
       style="font-variant:normal;font-weight:normal;font-stretch:normal;font-size:42px;font-family:'Volaroid Sans';-inkscape-font-specification:VolaroidSans;writing-mode:lr-tb;fill:#ffffff;fill-opacity:1;fill-rule:nonzero;stroke:none"
       transform="matrix(0.99075,0,0,-1,166.9243,227.3887)"><tspan
         id="tspan38"
         y="0"
         x="0 37.611 79.820999 118.713">PTEN</tspan></text>
<text
       id="text46"
       style="font-variant:normal;font-weight:normal;font-stretch:normal;font-size:16px;font-family:Montserrat;-inkscape-font-specification:Montserrat-Regular;writing-mode:lr-tb;fill:#ffffff;fill-opacity:1;fill-rule:nonzero;stroke:none"
       transform="matrix(0.99075,0,0,-1,120.5762,92.6865)"><tspan
         id="tspan42"
         y="0"
         x="0 10.064 21.872 33.439999 42.703999 48.591999 57.855999 62.688 77.487999 87.984001 92.783997 103.28 115.952 125.216 136.784 147.28 158.048 169.616 180.112 192.784 205.008 215.504 227.07201">PART-TIME ENTREPRENUERS</tspan><tspan
         id="tspan44"
         y="19.200001"
         x="76.031998 88.704002 99.199997 108.464 124.976 137.936 149.504">NETWORK</tspan></text>
</g></svg>